<svg data-v-fde0c5aa="" xmlns="http://www.w3.org/2000/svg" viewBox="0 0 300 300" class="iconLeft"><!----><defs data-v-fde0c5aa=""><!----></defs><rect data-v-fde0c5aa="" fill="#E1EFF7" x="0" y="0" width="300px" height="300px" class="logo-background-square"></rect><defs data-v-fde0c5aa=""><!----></defs><g data-v-fde0c5aa="" id="10bfb741-69a1-4b57-b7ed-d13144f8b8aa" fill="#0D2633" transform="matrix(2.8421803697770436,0,0,2.8421803697770436,106.55067181361036,120.65448754652631)"><path d="M8.65 5.17L7.64 5.17Q6.78 6.09 4.58 8.14L4.58 8.14Q8.61 12.11 9.45 12.70L9.45 12.70Q10.10 13.17 10.71 13.17L10.71 13.17Q11.02 13.17 11.74 12.84L11.74 12.84Q11.35 13.21 11.05 13.41Q10.75 13.60 10.55 13.72Q10.34 13.83 10.12 13.92L10.12 13.92Q9.28 14.26 8.70 14.01L8.70 14.01Q8.25 13.82 7.89 13.50Q7.53 13.17 7.29 12.97Q7.06 12.76 6.74 12.47Q6.42 12.18 6.07 11.87L6.07 11.87Q5.42 11.26 4.69 10.56Q3.95 9.86 3.16 9.11L3.16 9.11Q6.46 5.95 7.14 5.17L7.14 5.17L5.94 5.17Q6.41 4.75 6.80 4.50Q7.18 4.25 7.27 4.25L7.27 4.25L9.98 4.25Q9.85 4.27 9.53 4.56Q9.21 4.85 9.09 4.95L9.09 4.95Q8.80 5.17 8.65 5.17L8.65 5.17ZM3.40 14.08L1.08 14.08Q1.70 13.45 1.70 11.70L1.70 11.70L1.70 5.17L0.42 5.17L0.68 4.96Q1.55 4.25 1.74 4.25L1.74 4.25L4.86 4.25Q4.79 4.25 4.42 4.57Q4.05 4.89 3.85 5.03Q3.66 5.17 3.53 5.17L3.53 5.17L3.03 5.17L3.03 11.43Q3.03 12.08 2.97 12.31L2.97 12.31Q2.87 12.67 2.54 13.15L2.54 13.15L4.73 13.15Q4.63 13.17 4.31 13.45Q3.98 13.74 3.84 13.84L3.84 13.84Q3.53 14.08 3.40 14.08L3.40 14.08ZM12.36 3.41L13.69 2.48L13.73 3.26L13.73 3.62Q13.73 3.94 13.64 4.02Q13.56 4.09 13.47 4.16L13.47 4.16Q13.08 4.43 12.36 4.89L12.36 4.89Q12.39 4.21 12.39 4.19Q12.39 4.16 12.36 3.41L12.36 3.41ZM15.11 13.24L15.11 13.24Q14.91 13.41 14.71 13.58Q14.52 13.75 14.31 13.89L14.31 13.89Q13.82 14.21 13.36 14.21L13.36 14.21Q12.94 14.21 12.77 14.08L12.77 14.08Q12.42 13.82 12.42 13.13L12.42 13.13L12.42 9.88Q12.42 9.15 12.15 8.93L12.15 8.93Q12.03 8.83 11.89 8.83Q11.74 8.83 11.65 8.84Q11.55 8.86 11.44 8.88Q11.34 8.90 11.23 8.92L11.23 8.92Q11.57 8.65 11.87 8.44Q12.17 8.23 12.38 8.09Q12.59 7.94 12.97 7.68Q13.34 7.42 13.75 7.21L13.75 7.21L13.75 12.03Q13.75 12.73 13.84 12.91L13.84 12.91Q14.03 13.29 14.68 13.29L14.68 13.29Q14.86 13.29 15.11 13.24ZM16.30 8.16L15.42 8.16L16.30 7.46L16.30 6.49Q16.67 6.23 16.83 6.09Q16.99 5.95 17.10 5.89Q17.21 5.83 17.32 5.76L17.32 5.76Q17.62 5.59 17.64 5.56L17.64 5.56L17.64 7.23L19.82 7.23Q19.74 7.23 19.37 7.55L19.37 7.55Q18.68 8.16 18.50 8.16L18.50 8.16L17.64 8.16L17.64 11.82Q17.64 13.08 18.36 13.28L18.36 13.28Q18.58 13.33 18.77 13.33L18.77 13.33Q19.09 13.33 19.30 13.24Q19.52 13.15 19.67 13.07L19.67 13.07Q19.25 13.71 18.50 14.04L18.50 14.04Q18.11 14.21 17.66 14.21Q17.21 14.21 16.97 14.05Q16.72 13.90 16.57 13.64L16.57 13.64Q16.30 13.18 16.30 12.41L16.30 12.41L16.30 8.16ZM25.17 12.63L25.17 9.21Q25.17 8.34 24.68 8.34L24.68 8.34Q24.51 8.34 24.36 8.41L24.36 8.41Q25.14 7.75 25.46 7.58Q25.79 7.42 26.02 7.42Q26.24 7.42 26.37 7.58Q26.50 7.74 26.50 7.98L26.50 7.98L26.50 12.02Q26.50 14.31 25.38 16.15L25.38 16.15Q24.59 17.42 23.30 17.96L23.30 17.96Q22.65 18.24 21.85 18.24L21.85 18.24Q21.18 18.24 20.79 17.94L20.79 17.94Q20.64 17.82 20.64 17.69Q20.64 17.55 20.73 17.44Q20.82 17.33 20.96 17.22Q21.10 17.10 21.27 16.99Q21.44 16.88 21.60 16.79L21.60 16.79Q22.01 16.54 22.13 16.44L22.13 16.44Q21.96 16.58 21.96 16.74Q21.96 16.90 22.11 17.01Q22.27 17.12 22.48 17.19L22.48 17.19Q22.87 17.32 23.30 17.32Q23.73 17.32 24.06 17.10Q24.39 16.88 24.60 16.51Q24.81 16.15 24.93 15.69Q25.04 15.22 25.09 14.75L25.09 14.75Q25.14 14.25 25.17 13.04L25.17 13.04Q23.65 14.21 22.52 14.21L22.52 14.21Q21.75 14.21 21.35 13.70L21.35 13.70Q20.99 13.24 20.99 12.44L20.99 12.44L20.99 9.69Q20.99 8.31 20.20 8.31L20.20 8.31Q19.95 8.31 19.71 8.41L19.71 8.41Q20.54 7.68 21.07 7.46L21.07 7.46Q21.32 7.37 21.58 7.37Q21.85 7.37 22.00 7.47Q22.15 7.57 22.22 7.72L22.22 7.72Q22.34 7.98 22.34 8.49L22.34 8.49L22.33 11.32Q22.33 12.29 22.68 12.75L22.68 12.75Q23.09 13.28 24.01 13.28L24.01 13.28Q24.35 13.28 24.67 13.09Q24.99 12.91 25.17 12.63L25.17 12.63ZM36.48 13.15L38.67 13.15Q38.59 13.16 38.23 13.48L38.23 13.48Q37.52 14.08 37.34 14.08L37.34 14.08L35.03 14.08Q35.39 13.68 35.49 13.44L35.49 13.44Q35.64 13.06 35.64 12.45L35.64 12.45L35.64 9.42L30.55 9.42L30.55 11.43Q30.55 12.08 30.49 12.31L30.49 12.31Q30.39 12.67 30.06 13.15L30.06 13.15L32.25 13.15Q32.16 13.17 31.83 13.45Q31.50 13.74 31.36 13.84L31.36 13.84Q31.06 14.08 30.92 14.08L30.92 14.08L28.60 14.08Q29.11 13.69 29.19 13.00L29.19 13.00Q29.22 12.76 29.22 12.45L29.22 12.45L29.22 5.17L27.94 5.17L28.21 4.96Q29.07 4.25 29.26 4.25L29.26 4.25L32.25 4.25Q32.17 4.25 31.83 4.54Q31.50 4.83 31.36 4.94L31.36 4.94Q31.06 5.17 30.92 5.17L30.92 5.17L30.55 5.17L30.55 8.49L35.64 8.49L35.64 5.17L34.36 5.17L34.62 4.96Q35.49 4.25 35.69 4.25L35.69 4.25L38.67 4.25Q38.59 4.25 38.25 4.54Q37.92 4.83 37.79 4.94L37.79 4.94Q37.47 5.17 37.34 5.17L37.34 5.17L36.97 5.17L36.97 11.43Q36.97 12.08 36.91 12.31L36.91 12.31Q36.81 12.68 36.48 13.15L36.48 13.15ZM43.39 8.42L43.39 8.42Q44.49 7.43 45.00 7.43Q45.51 7.43 45.51 8.09L45.51 8.09L45.51 12.43Q45.51 12.84 45.70 13.04Q45.88 13.25 46.31 13.25L46.31 13.25Q46.61 13.25 46.90 13.14L46.90 13.14Q46.68 13.22 46.49 13.40Q46.31 13.57 46.11 13.75L46.11 13.75Q45.60 14.19 44.94 14.19L44.94 14.19Q44.31 14.19 44.22 13.49L44.22 13.49Q44.20 13.30 44.19 13.09L44.19 13.09Q42.70 14.22 41.55 14.22L41.55 14.22Q40.77 14.22 40.37 13.54L40.37 13.54Q40.02 12.92 40.02 11.85L40.02 11.85L40.02 9.55Q40.02 8.96 39.92 8.74L39.92 8.74Q39.72 8.32 39.22 8.32L39.22 8.32Q38.99 8.32 38.74 8.42L38.74 8.42Q39.57 7.68 40.09 7.48L40.09 7.48Q40.35 7.38 40.62 7.38L40.62 7.38Q41.36 7.38 41.36 8.33L41.36 8.33Q41.36 8.33 41.36 8.78L41.36 8.78Q41.36 8.78 41.36 11.33L41.36 11.33Q41.36 12.31 41.72 12.77L41.72 12.77Q42.12 13.29 43.04 13.29L43.04 13.29Q43.49 13.29 43.98 12.90L43.98 12.90Q44.10 12.80 44.19 12.74L44.19 12.74L44.19 9.13Q44.19 8.62 43.95 8.43L43.95 8.43Q43.85 8.35 43.70 8.35L43.70 8.35Q43.54 8.35 43.39 8.42ZM49.12 2.41L49.12 8.57Q50.50 7.37 51.63 7.37L51.63 7.37Q52.79 7.37 53.44 8.29L53.44 8.29Q53.99 9.08 53.99 10.27L53.99 10.27Q53.99 11.19 53.40 12.14L53.40 12.14Q52.81 13.06 51.93 13.67L51.93 13.67Q50.99 14.30 50.07 14.30L50.07 14.30Q49.11 14.30 48.45 13.64L48.45 13.64Q47.79 12.98 47.79 12.01L47.79 12.01L47.79 5.24Q47.79 4.66 47.73 4.46L47.73 4.46Q47.58 4.03 47.17 4.03L47.17 4.03Q47.05 4.03 46.88 4.07Q46.71 4.11 46.60 4.13L46.60 4.13Q47.28 3.60 47.62 3.38Q47.96 3.15 48.34 2.89Q48.71 2.63 49.12 2.41L49.12 2.41ZM52.61 12.09L52.61 12.09Q52.68 11.68 52.68 11.18Q52.68 10.68 52.55 10.15Q52.42 9.63 52.15 9.21L52.15 9.21Q51.54 8.29 50.42 8.29L50.42 8.29Q49.82 8.29 49.45 8.85L49.45 8.85Q49.12 9.36 49.12 10.00L49.12 10.00L49.12 11.69Q49.12 12.46 49.67 12.95L49.67 12.95Q50.22 13.44 51.04 13.44L51.04 13.44Q52.38 13.44 52.61 12.09Z"></path></g><defs data-v-fde0c5aa=""><linearGradient data-v-fde0c5aa="" gradientTransform="rotate(25)" id="7f2cf85d-0545-411e-8259-7ae74eb47f10" x1="0%" y1="0%" x2="100%" y2="0%"><stop data-v-fde0c5aa="" offset="0%" stop-color="#006678" stop-opacity="1"></stop><stop data-v-fde0c5aa="" offset="100%" stop-color="#4FA8FF" stop-opacity="1"></stop></linearGradient></defs><g data-v-fde0c5aa="" id="cf4669e5-75ab-448a-b091-dcc1a3c67275" stroke="none" fill="url(#7f2cf85d-0545-411e-8259-7ae74eb47f10)" transform="matrix(0.14420421486131232,0,0,0.14420421486131232,30.455410916270907,113.08372154559946)"><path d="M132.919 490H98.782c-17.284 0-31.345-14.059-31.345-31.338V298.649h31.345v160.013l34.137-.007V490zM333.502 265.681c-45.66 27.738-108.09 27.737-153.748 0-14.107 17.13-22.58 39.074-22.58 62.997v160.898h44.494v-91.977h31.345v91.977h44.99v-91.977h31.345v91.977h46.733V328.678c.001-23.924-8.472-45.868-22.579-62.997z"></path><g><path d="M343.288 84.949c4.702-24.106-4.509-47.867-23.751-62.949-13.162 9.003-26.134 22.219-25.784 39.211-24.542-7.568-46.306-7.51-70.708.045-2.38-15.197-15.015-36.567-30.725-38.398a63.7 63.7 0 00-18.657 59.076c-22.22 17.351-36.028 41.607-36.028 68.455 0 52.747 53.274 95.506 118.992 95.506s118.992-42.759 118.992-95.506c.001-25.326-12.286-48.346-32.331-65.44zM397.381 137.234h48.438v31.345h-48.438zM66.188 168.579l.272-31.345 49.966.434-.272 31.345z"></path></g></g><!----></svg>