<svg data-v-fde0c5aa="" xmlns="http://www.w3.org/2000/svg" viewBox="0 0 300 300" class="iconLeft"><!----><defs data-v-fde0c5aa=""><!----></defs><rect data-v-fde0c5aa="" fill="transparent" x="0" y="0" width="300px" height="300px" class="logo-background-square"></rect><defs data-v-fde0c5aa=""><!----></defs><g data-v-fde0c5aa="" id="06928381-3fad-454f-b9fe-f99bfd7b30aa" fill="#000000" transform="matrix(3.193566432663882,0,0,3.193566432663882,99.74683238870497,119.93257139688887)"><path d="M7.39 13.02L4.00 8.04L2.16 9.91L2.16 13.02L1.46 13.02L1.46 3.78L2.16 3.78L2.16 8.96L7.22 3.78L8.15 3.78L4.49 7.52L8.25 13.02L7.39 13.02ZM10.14 4.66Q9.87 4.66 9.71 4.50Q9.55 4.34 9.55 4.07L9.55 4.07Q9.55 3.81 9.71 3.65Q9.87 3.49 10.14 3.49L10.14 3.49Q10.40 3.49 10.56 3.65Q10.72 3.81 10.72 4.07L10.72 4.07Q10.72 4.34 10.56 4.50Q10.40 4.66 10.14 4.66L10.14 4.66ZM10.49 6.02L10.49 13.02L9.79 13.02L9.79 6.02L10.49 6.02ZM16.60 12.00L16.86 12.57Q16.58 12.85 16.17 13.01Q15.76 13.16 15.27 13.16L15.27 13.16Q14.42 13.16 13.94 12.69Q13.45 12.22 13.45 11.27L13.45 11.27L13.45 6.62L12.05 6.62L12.05 6.02L13.45 6.02L13.45 4.27L14.15 4.07L14.15 6.02L16.79 6.02L16.79 6.62L14.15 6.62L14.15 11.17Q14.15 11.83 14.47 12.17Q14.78 12.52 15.39 12.52L15.39 12.52Q16.09 12.52 16.60 12.00L16.60 12.00ZM23.88 6.02L20.51 14.31Q20.12 15.26 19.64 15.64Q19.17 16.03 18.44 16.03L18.44 16.03Q17.57 16.03 17.11 15.51L17.11 15.51L17.37 14.91Q17.71 15.41 18.44 15.41L18.44 15.41Q18.93 15.41 19.27 15.14Q19.61 14.87 19.91 14.14L19.91 14.14L20.36 13.02L19.63 11.28L17.40 6.02L18.20 6.02L20.34 11.33L20.69 12.26L21.07 11.26L23.13 6.02L23.88 6.02ZM32.03 3.78L32.73 3.78L32.73 13.02L32.03 13.02L32.03 8.65L26.32 8.65L26.32 13.02L25.62 13.02L25.62 3.78L26.32 3.78L26.32 7.99L32.03 7.99L32.03 3.78ZM40.50 6.02L41.20 6.02L41.20 13.02L40.57 13.02L40.54 11.63Q40.19 12.38 39.49 12.77Q38.79 13.16 37.84 13.16L37.84 13.16Q36.69 13.16 36.01 12.52Q35.32 11.89 35.32 10.64L35.32 10.64L35.32 6.02L36.02 6.02L36.02 10.47Q36.02 12.54 37.95 12.54L37.95 12.54Q38.72 12.54 39.30 12.21Q39.89 11.87 40.19 11.30Q40.50 10.72 40.50 10.04L40.50 10.04L40.50 6.02ZM46.97 5.88Q48.45 5.88 49.31 6.85Q50.18 7.81 50.18 9.52L50.18 9.52Q50.18 11.23 49.31 12.19Q48.45 13.16 46.97 13.16L46.97 13.16Q46.03 13.16 45.35 12.71Q44.66 12.25 44.37 11.45L44.37 11.45L44.32 13.02L43.69 13.02L43.69 2.80L44.39 2.80L44.39 7.50Q44.72 6.75 45.40 6.31Q46.07 5.88 46.97 5.88L46.97 5.88ZM46.89 12.54Q48.10 12.54 48.79 11.74Q49.48 10.93 49.48 9.52L49.48 9.52Q49.48 8.11 48.79 7.30Q48.10 6.50 46.89 6.50L46.89 6.50Q45.79 6.50 45.12 7.24Q44.45 7.98 44.39 9.27L44.39 9.27L44.39 9.77Q44.45 11.06 45.12 11.80Q45.79 12.54 46.89 12.54L46.89 12.54Z"></path></g><defs data-v-fde0c5aa=""><linearGradient data-v-fde0c5aa="" gradientTransform="rotate(25)" id="cc98f29c-7d84-4623-a999-843207e3e56e" x1="0%" y1="0%" x2="100%" y2="0%"><stop data-v-fde0c5aa="" offset="0%" stop-color="#08C7D6" stop-opacity="1"></stop><stop data-v-fde0c5aa="" offset="100%" stop-color="#02023E" stop-opacity="1"></stop></linearGradient></defs><g data-v-fde0c5aa="" id="598ba43a-05aa-45cc-8d14-08a15e5c2d5a" stroke="none" fill="url(#cc98f29c-7d84-4623-a999-843207e3e56e)" transform="matrix(0.13541950476880368,0,0,0.13541950476880368,31.036853338972087,115.33260729577067)"><path d="M132.919 490H98.782c-17.284 0-31.345-14.059-31.345-31.338V298.649h31.345v160.013l34.137-.007V490zM333.502 265.681c-45.66 27.738-108.09 27.737-153.748 0-14.107 17.13-22.58 39.074-22.58 62.997v160.898h44.494v-91.977h31.345v91.977h44.99v-91.977h31.345v91.977h46.733V328.678c.001-23.924-8.472-45.868-22.579-62.997z"></path><g><path d="M343.288 84.949c4.702-24.106-4.509-47.867-23.751-62.949-13.162 9.003-26.134 22.219-25.784 39.211-24.542-7.568-46.306-7.51-70.708.045-2.38-15.197-15.015-36.567-30.725-38.398a63.7 63.7 0 00-18.657 59.076c-22.22 17.351-36.028 41.607-36.028 68.455 0 52.747 53.274 95.506 118.992 95.506s118.992-42.759 118.992-95.506c.001-25.326-12.286-48.346-32.331-65.44zM397.381 137.234h48.438v31.345h-48.438zM66.188 168.579l.272-31.345 49.966.434-.272 31.345z"></path></g></g><!----></svg>